<?xml version="1.0" encoding="utf-8"?>
<!-- Generator: Adobe Illustrator 21.0.0, SVG Export Plug-In . SVG Version: 6.00 Build 0)  -->
<svg version="1.1" id="Layer_1" xmlns="http://www.w3.org/2000/svg" xmlns:xlink="http://www.w3.org/1999/xlink" x="0px" y="0px"
	 viewBox="0 0 61 61" style="enable-background:new 0 0 61 61;" xml:space="preserve">
<style type="text/css">
	.st0{fill:#455A64;stroke:#424242;stroke-linecap:round;stroke-linejoin:round;stroke-miterlimit:10;}
	.st1{fill:none;stroke:#546E7A;stroke-linecap:round;stroke-linejoin:round;stroke-miterlimit:10;}
	.st2{fill:#546E7A;stroke:#424242;stroke-linecap:round;stroke-linejoin:round;stroke-miterlimit:10;}
	.st3{fill:none;stroke:#78909C;stroke-linecap:round;stroke-linejoin:round;stroke-miterlimit:10;}
	.st4{fill:none;stroke:#455A64;stroke-linecap:round;stroke-linejoin:round;stroke-miterlimit:10;}
	.st5{fill:#FFA726;stroke:#424242;stroke-linecap:round;stroke-linejoin:round;stroke-miterlimit:10;}
	.st6{fill:none;stroke:#FB8C00;stroke-linecap:round;stroke-linejoin:round;stroke-miterlimit:10;}
	.st7{fill:none;stroke:#FFCC80;stroke-linecap:round;stroke-linejoin:round;stroke-miterlimit:10;}
	.st8{fill:#CFD8DC;stroke:#424242;stroke-linecap:round;stroke-linejoin:round;stroke-miterlimit:10;}
	.st9{fill:none;stroke:#ECEFF1;stroke-linecap:round;stroke-linejoin:round;stroke-miterlimit:10;}
	.st10{fill:none;stroke:#B0BEC5;stroke-linecap:round;stroke-linejoin:round;stroke-miterlimit:10;}
	.st11{fill:none;stroke:#424242;stroke-linecap:round;stroke-linejoin:round;stroke-miterlimit:10;}
	.st12{fill:#EC407A;stroke:#424242;stroke-linecap:round;stroke-linejoin:round;stroke-miterlimit:10;}
	.st13{fill:none;stroke:#F48FB1;stroke-linecap:round;stroke-linejoin:round;stroke-miterlimit:10;}
	.st14{fill:none;stroke:#D81B60;stroke-linecap:round;stroke-linejoin:round;stroke-miterlimit:10;}
	.st15{fill:#ECEFF1;stroke:#424242;stroke-linecap:round;stroke-linejoin:round;stroke-miterlimit:10;}
	.st16{fill:#26C6DA;stroke:#424242;stroke-linecap:round;stroke-linejoin:round;stroke-miterlimit:10;}
	.st17{fill:none;stroke:#00ACC1;stroke-linecap:round;stroke-linejoin:round;stroke-miterlimit:10;}
	.st18{fill:none;stroke:#80DEEA;stroke-linecap:round;stroke-linejoin:round;stroke-miterlimit:10;}
	.st19{fill:#B0BEC5;stroke:#424242;stroke-linecap:round;stroke-linejoin:round;stroke-miterlimit:10;}
	.st20{fill:none;stroke:#CFD8DC;stroke-linecap:round;stroke-linejoin:round;stroke-miterlimit:10;}
	.st21{fill:#E0E0E0;stroke:#424242;stroke-linecap:round;stroke-linejoin:round;stroke-miterlimit:10;}
	.st22{fill:#F57F17;stroke:#424242;stroke-linecap:round;stroke-linejoin:round;stroke-miterlimit:10;}
	.st23{fill:none;stroke:#F57F17;stroke-linecap:round;stroke-linejoin:round;stroke-miterlimit:10;}
	.st24{fill:#FB8C00;stroke:#424242;stroke-miterlimit:10;}
	.st25{fill:none;stroke:#0097A7;stroke-linecap:round;stroke-linejoin:round;stroke-miterlimit:10;}
	.st26{fill:#26C6DA;stroke:#0097A7;stroke-linecap:round;stroke-linejoin:round;stroke-miterlimit:10;}
	.st27{fill:none;stroke:#90A4AE;stroke-linecap:round;stroke-linejoin:round;stroke-miterlimit:10;}
	.st28{fill:#CFD8DC;}
	.st29{fill:none;stroke:#424242;stroke-linecap:round;stroke-linejoin:round;}
	.st30{fill:none;stroke:#424242;stroke-linecap:round;stroke-linejoin:round;stroke-dasharray:4.0714,4.0714;}
	.st31{fill:#90A4AE;stroke:#424242;stroke-linecap:round;stroke-linejoin:round;stroke-miterlimit:10;}
	.st32{fill:none;stroke:#78909C;stroke-linecap:round;stroke-miterlimit:10;}
	.st33{fill:none;stroke:#455A64;stroke-linecap:round;stroke-miterlimit:10;}
	.st34{fill:#78909C;stroke:#424242;stroke-linecap:round;stroke-linejoin:round;stroke-miterlimit:10;}
	.st35{fill:none;stroke:#546E7A;stroke-linecap:round;stroke-miterlimit:10;}
	.st36{fill:none;stroke:#FFA726;stroke-linecap:round;stroke-linejoin:round;stroke-miterlimit:10;}
	.st37{fill:#4DD0E1;stroke:#424242;stroke-linecap:round;stroke-linejoin:round;stroke-miterlimit:10;}
	.st38{fill:#00ACC1;stroke:#424242;stroke-linecap:round;stroke-linejoin:round;stroke-miterlimit:10;}
	.st39{fill:#D81B60;stroke:#424242;stroke-linecap:round;stroke-linejoin:round;stroke-miterlimit:10;}
	.st40{fill:none;stroke:#C2185B;stroke-linecap:round;stroke-linejoin:round;stroke-miterlimit:10;}
	.st41{fill:#FB8C00;stroke:#424242;stroke-linecap:round;stroke-linejoin:round;stroke-miterlimit:10;}
	.st42{fill:none;stroke:#37474F;stroke-linecap:round;stroke-linejoin:round;stroke-miterlimit:10;}
	.st43{fill:#B0BEC5;stroke:#424242;stroke-miterlimit:10;}
	.st44{fill:#37474F;stroke:#424242;stroke-linecap:round;stroke-linejoin:round;stroke-miterlimit:10;}
	.st45{fill:#F5F5F5;stroke:#424242;stroke-linecap:round;stroke-linejoin:round;stroke-miterlimit:10;}
	.st46{fill:none;stroke:#FAFAFA;stroke-linecap:round;stroke-linejoin:round;stroke-miterlimit:10;}
	.st47{fill:#F06292;stroke:#424242;stroke-linecap:round;stroke-linejoin:round;stroke-miterlimit:10;}
	.st48{fill:#F48FB1;stroke:#424242;stroke-linecap:round;stroke-linejoin:round;stroke-miterlimit:10;}
</style>
<g id="Voiceover_Speech">
	<path class="st8" d="M55.2,21.6h-4.5c-1.7,0-3,1.3-3,3v9c0,1.7,1.3,3,3,3h4.5c1.7,0,3-1.3,3-3v-9C58.2,22.9,56.9,21.6,55.2,21.6z"
		/>
	<path class="st0" d="M53.5,26.4L53.5,26.4c-1.1,0-2-0.9-2-2v-22h4v22C55.5,25.5,54.6,26.4,53.5,26.4z"/>
	<path class="st8" d="M57.2,21.6h-4.5c-1.7,0-3,1.3-3,3v9c0,1.7,1.3,3,3,3h4.5c1.7,0,3-1.3,3-3v-9C60.2,22.9,58.9,21.6,57.2,21.6z"
		/>
	<g>
		<ellipse class="st5" cx="35.7" cy="21.5" rx="4" ry="6"/>
		<ellipse class="st22" cx="32.7" cy="21.5" rx="4" ry="6"/>
		<path class="st36" d="M30.7,21.5c0-2.4,1.2-4,2-4"/>
	</g>
	<path class="st0" d="M38.3,60.5H0.8v-11c0-6.6,5.4-12,12-12h13.5c6.6,0,12,5.4,12,12V60.5z"/>
	<path class="st1" d="M2.8,58.5v-9c0-5.5,4.5-10,10-10"/>
	<path class="st2" d="M44.3,60.5H6.8v-11c0-6.6,5.4-12,12-12h13.5c6.6,0,12,5.4,12,12V60.5z"/>
	<path class="st3" d="M8.8,58.5v-9c0-5.5,4.5-10,10-10"/>
	<path class="st4" d="M32.3,39.5c5.5,0,10,4.5,10,10v9"/>
	<path class="st8" d="M26.7,37.5H16.2c-5.5,0-10-4.5-10-10V10h30.5v17.5C36.7,33,32.2,37.5,26.7,37.5z"/>
	<path class="st2" d="M36.7,19.5L15.4,10v6.5c0,1.7-1.3,3-3,3H6.2v-9c0-5.5,4.5-10,10-10h10.5c5.5,0,10,4.5,10,10V19.5z"/>
	<path class="st4" d="M26.7,2.5c4.4,0,8,3.6,8,8v5.9"/>
	<path class="st3" d="M8.2,17.5v-7c0-4.4,3.6-8,8-8"/>
	<path class="st15" d="M32.7,24.5c0,4.1-3.4,7.5-7.5,7.5s-7.5-3.4-7.5-7.5H32.7z"/>
	<path class="st8" d="M33,37.5c-0.2,0-0.5,0-0.7,0H18.8c-0.3,0-0.5,0-0.7,0c0,4.1,3.4,7.5,7.5,7.5S33,41.7,33,37.5z"/>
	<path class="st0" d="M55.5,26.4L55.5,26.4c-1.1,0-2-0.9-2-2v-22h4v22C57.5,25.5,56.6,26.4,55.5,26.4z"/>
	<g>
		<ellipse class="st5" cx="8.2" cy="21.5" rx="4" ry="6"/>
		<ellipse class="st22" cx="5.2" cy="21.5" rx="4" ry="6"/>
		<path class="st36" d="M3.2,21.5c0-2.4,1.2-4,2-4"/>
	</g>
	<polyline class="st11" points="39.2,29.3 41.6,27.3 42.8,29.3 45.2,27.3 	"/>
</g>
</svg>
